# xmcd CD database file
#
# Track frame offsets:
#	150
#	21833
#	32627
#
# Disc length: 576 seconds
#
# Revision: 0
# Processed by: cddbd v1.5.1PL0 Copyright (c) Steve Scherf et al.
# Submitted via: CDex 1.51
#
DISCID=1a023e03
DTITLE=橋本みゆき - 秋色謳華 −秋色恋華ファンディスク− マキシシングル Growth
DYEAR=2005
DGENRE=Game
TTITLE0=Growth
TTITLE1=Growth -short ver.-
TTITLE2=Growth -instrumental ver.-
EXTD=YEAR: 2005/08/12
EXTT0=
EXTT1=
EXTT2=
PLAYORDER=
